<?xml version="1.0" standalone="no"?>
<!DOCTYPE svg PUBLIC "-//W3C//DTD SVG 1.1//EN" "http://www.w3.org/Graphics/SVG/1.1/DTD/svg11.dtd">
<!-- Created with WaveDrom -->
<svg xmlns="http://www.w3.org/2000/svg" xmlns:xlink="http://www.w3.org/1999/xlink" width="1100" height="90" viewBox="0 0 1100 90" class="WaveDrom"><g transform="translate(0.5,0.5)" text-anchor="middle" font-size="14" font-family="sans-serif" font-weight="normal"><g transform="translate(4,21)"><g stroke="black" stroke-width="1" stroke-linecap="round"><line x2="1091"/><line y2="37"/><line x2="1091" y1="37" y2="37"/><line x1="1091" x2="1091" y2="37"/><line x1="1073" x2="1073" y2="4"/><line x1="1073" x2="1073" y1="37" y2="33"/><line x1="1056" x2="1056" y2="4"/><line x1="1056" x2="1056" y1="37" y2="33"/><line x1="1038" x2="1038" y2="4"/><line x1="1038" x2="1038" y1="37" y2="33"/><line x1="1021" x2="1021" y2="4"/><line x1="1021" x2="1021" y1="37" y2="33"/><line x1="1003" x2="1003" y2="4"/><line x1="1003" x2="1003" y1="37" y2="33"/><line x1="985" x2="985" y2="4"/><line x1="985" x2="985" y1="37" y2="33"/><line x1="968" x2="968" y2="4"/><line x1="968" x2="968" y1="37" y2="33"/><line x1="950" x2="950" y2="4"/><line x1="950" x2="950" y1="37" y2="33"/><line x1="933" x2="933" y2="4"/><line x1="933" x2="933" y1="37" y2="33"/><line x1="915" x2="915" y2="4"/><line x1="915" x2="915" y1="37" y2="33"/><line x1="897" x2="897" y2="4"/><line x1="897" x2="897" y1="37" y2="33"/><line x1="880" x2="880" y2="4"/><line x1="880" x2="880" y1="37" y2="33"/><line x1="862" x2="862" y2="4"/><line x1="862" x2="862" y1="37" y2="33"/><line x1="845" x2="845" y2="4"/><line x1="845" x2="845" y1="37" y2="33"/><line x1="827" x2="827" y2="4"/><line x1="827" x2="827" y1="37" y2="33"/><line x1="809" x2="809" y2="4"/><line x1="809" x2="809" y1="37" y2="33"/><line x1="792" x2="792" y2="4"/><line x1="792" x2="792" y1="37" y2="33"/><line x1="774" x2="774" y2="4"/><line x1="774" x2="774" y1="37" y2="33"/><line x1="757" x2="757" y2="4"/><line x1="757" x2="757" y1="37" y2="33"/><line x1="739" x2="739" y2="4"/><line x1="739" x2="739" y1="37" y2="33"/><line x1="721" x2="721" y2="4"/><line x1="721" x2="721" y1="37" y2="33"/><line x1="704" x2="704" y2="4"/><line x1="704" x2="704" y1="37" y2="33"/><line x1="686" x2="686" y2="4"/><line x1="686" x2="686" y1="37" y2="33"/><line x1="669" x2="669" y2="4"/><line x1="669" x2="669" y1="37" y2="33"/><line x1="651" x2="651" y2="4"/><line x1="651" x2="651" y1="37" y2="33"/><line x1="633" x2="633" y2="4"/><line x1="633" x2="633" y1="37" y2="33"/><line x1="616" x2="616" y2="4"/><line x1="616" x2="616" y1="37" y2="33"/><line x1="598" x2="598" y2="4"/><line x1="598" x2="598" y1="37" y2="33"/><line x1="581" x2="581" y2="4"/><line x1="581" x2="581" y1="37" y2="33"/><line x1="563" x2="563" y2="4"/><line x1="563" x2="563" y1="37" y2="33"/><line x1="546" x2="546" y2="4"/><line x1="546" x2="546" y1="37" y2="33"/><line x1="528" x2="528" y2="37"/><line x1="510" x2="510" y2="4"/><line x1="510" x2="510" y1="37" y2="33"/><line x1="493" x2="493" y2="4"/><line x1="493" x2="493" y1="37" y2="33"/><line x1="475" x2="475" y2="4"/><line x1="475" x2="475" y1="37" y2="33"/><line x1="458" x2="458" y2="4"/><line x1="458" x2="458" y1="37" y2="33"/><line x1="440" x2="440" y2="4"/><line x1="440" x2="440" y1="37" y2="33"/><line x1="422" x2="422" y2="4"/><line x1="422" x2="422" y1="37" y2="33"/><line x1="405" x2="405" y2="4"/><line x1="405" x2="405" y1="37" y2="33"/><line x1="387" x2="387" y2="4"/><line x1="387" x2="387" y1="37" y2="33"/><line x1="370" x2="370" y2="4"/><line x1="370" x2="370" y1="37" y2="33"/><line x1="352" x2="352" y2="4"/><line x1="352" x2="352" y1="37" y2="33"/><line x1="334" x2="334" y2="4"/><line x1="334" x2="334" y1="37" y2="33"/><line x1="317" x2="317" y2="4"/><line x1="317" x2="317" y1="37" y2="33"/><line x1="299" x2="299" y2="4"/><line x1="299" x2="299" y1="37" y2="33"/><line x1="282" x2="282" y2="4"/><line x1="282" x2="282" y1="37" y2="33"/><line x1="264" x2="264" y2="4"/><line x1="264" x2="264" y1="37" y2="33"/><line x1="246" x2="246" y2="4"/><line x1="246" x2="246" y1="37" y2="33"/><line x1="229" x2="229" y2="4"/><line x1="229" x2="229" y1="37" y2="33"/><line x1="211" x2="211" y2="4"/><line x1="211" x2="211" y1="37" y2="33"/><line x1="194" x2="194" y2="4"/><line x1="194" x2="194" y1="37" y2="33"/><line x1="176" x2="176" y2="4"/><line x1="176" x2="176" y1="37" y2="33"/><line x1="158" x2="158" y2="4"/><line x1="158" x2="158" y1="37" y2="33"/><line x1="141" x2="141" y2="4"/><line x1="141" x2="141" y1="37" y2="33"/><line x1="123" x2="123" y2="4"/><line x1="123" x2="123" y1="37" y2="33"/><line x1="106" x2="106" y2="4"/><line x1="106" x2="106" y1="37" y2="33"/><line x1="88" x2="88" y2="4"/><line x1="88" x2="88" y1="37" y2="33"/><line x1="70" x2="70" y2="4"/><line x1="70" x2="70" y1="37" y2="33"/><line x1="53" x2="53" y2="4"/><line x1="53" x2="53" y1="37" y2="33"/><line x1="35" x2="35" y2="4"/><line x1="35" x2="35" y1="37" y2="33"/><line x1="18" x2="18" y2="4"/><line x1="18" x2="18" y1="37" y2="33"/></g><g><g><rect x="528" width="563" height="37" field="ibus.dat_r" style="fill-opacity:0.1;fill:hsl(0,100%,50%)"/><rect width="528" height="37" field="ibus.adr" style="fill-opacity:0.1;fill:hsl(80,100%,50%)"/></g><g transform="translate(9,-11)"><g transform="translate(1073)"><text y="6">0</text></g><g transform="translate(528)"><text y="6">31</text></g><g transform="translate(510)"><text y="6">32</text></g><g transform="translate(0)"><text y="6">61</text></g></g><g transform="translate(9,18)"><g transform="translate(801)"><text y="6"><tspan>ibus.dat_r</tspan></text></g><g transform="translate(255)"><text y="6"><tspan>ibus.adr</tspan></text></g></g><g transform="translate(9,45)"><g><g><g transform="translate(1073)"><text y="6">0</text></g><g transform="translate(1056)"><text y="6">0</text></g><g transform="translate(1038)"><text y="6">0</text></g><g transform="translate(1021)"><text y="6">0</text></g><g transform="translate(1003)"><text y="6">0</text></g><g transform="translate(985)"><text y="6">0</text></g><g transform="translate(968)"><text y="6">0</text></g><g transform="translate(950)"><text y="6">0</text></g><g transform="translate(933)"><text y="6">0</text></g><g transform="translate(915)"><text y="6">0</text></g><g transform="translate(897)"><text y="6">0</text></g><g transform="translate(880)"><text y="6">0</text></g><g transform="translate(862)"><text y="6">1</text></g><g transform="translate(845)"><text y="6">1</text></g><g transform="translate(827)"><text y="6">1</text></g><g transform="translate(809)"><text y="6">0</text></g><g transform="translate(792)"><text y="6">0</text></g><g transform="translate(774)"><text y="6">1</text></g><g transform="translate(757)"><text y="6">0</text></g><g transform="translate(739)"><text y="6">1</text></g><g transform="translate(721)"><text y="6">1</text></g><g transform="translate(704)"><text y="6">0</text></g><g transform="translate(686)"><text y="6">0</text></g><g transform="translate(669)"><text y="6">1</text></g><g transform="translate(651)"><text y="6">1</text></g><g transform="translate(633)"><text y="6">1</text></g><g transform="translate(616)"><text y="6">0</text></g><g transform="translate(598)"><text y="6">0</text></g><g transform="translate(581)"><text y="6">0</text></g><g transform="translate(563)"><text y="6">1</text></g><g transform="translate(546)"><text y="6">1</text></g><g transform="translate(528)"><text y="6">0</text></g></g><g transform="translate(801,14)"><text y="6"><tspan>Instruction bus data read (0x639A7000)</tspan></text></g></g><g><g><g transform="translate(510)"><text y="6">0</text></g><g transform="translate(493)"><text y="6">0</text></g><g transform="translate(475)"><text y="6">0</text></g><g transform="translate(458)"><text y="6">0</text></g><g transform="translate(440)"><text y="6">1</text></g><g transform="translate(422)"><text y="6">0</text></g><g transform="translate(405)"><text y="6">0</text></g><g transform="translate(387)"><text y="6">0</text></g><g transform="translate(370)"><text y="6">1</text></g><g transform="translate(352)"><text y="6">0</text></g><g transform="translate(334)"><text y="6">1</text></g><g transform="translate(317)"><text y="6">1</text></g><g transform="translate(299)"><text y="6">1</text></g><g transform="translate(282)"><text y="6">1</text></g><g transform="translate(264)"><text y="6">1</text></g><g transform="translate(246)"><text y="6">0</text></g><g transform="translate(229)"><text y="6">0</text></g><g transform="translate(211)"><text y="6">0</text></g><g transform="translate(194)"><text y="6">1</text></g><g transform="translate(176)"><text y="6">0</text></g><g transform="translate(158)"><text y="6">1</text></g><g transform="translate(141)"><text y="6">0</text></g><g transform="translate(123)"><text y="6">0</text></g><g transform="translate(106)"><text y="6">0</text></g><g transform="translate(88)"><text y="6">0</text></g><g transform="translate(70)"><text y="6">0</text></g><g transform="translate(53)"><text y="6">1</text></g><g transform="translate(35)"><text y="6">0</text></g><g transform="translate(18)"><text y="6">0</text></g><g transform="translate(0)"><text y="6">0</text></g></g><g transform="translate(255,14)"><text y="6"><tspan>Instruction bus address (0x84147D10)</tspan></text></g></g></g></g></g></g></svg>