<?xml version="1.0" standalone="no"?>
<!DOCTYPE svg PUBLIC "-//W3C//DTD SVG 1.1//EN" "http://www.w3.org/Graphics/SVG/1.1/DTD/svg11.dtd">
<!-- Created with WaveDrom -->
<svg xmlns="http://www.w3.org/2000/svg" xmlns:xlink="http://www.w3.org/1999/xlink" width="400" height="90" viewBox="0 0 400 90" class="WaveDrom"><g transform="translate(0.5,0.5)" text-anchor="middle" font-size="14" font-family="sans-serif" font-weight="normal"><g transform="translate(4,21)"><g stroke="black" stroke-width="1" stroke-linecap="round"><line x2="391"/><line y2="51"/><line x2="391" y1="51" y2="51"/><line x1="391" x2="391" y2="51"/><line x1="342" x2="342" y2="6"/><line x1="342" x2="342" y1="51" y2="45"/><line x1="293" x2="293" y2="6"/><line x1="293" x2="293" y1="51" y2="45"/><line x1="244" x2="244" y2="6"/><line x1="244" x2="244" y1="51" y2="45"/><line x1="196" x2="196" y2="6"/><line x1="196" x2="196" y1="51" y2="45"/><line x1="147" x2="147" y2="6"/><line x1="147" x2="147" y1="51" y2="45"/><line x1="98" x2="98" y2="6"/><line x1="98" x2="98" y1="51" y2="45"/><line x1="49" x2="49" y2="6"/><line x1="49" x2="49" y1="51" y2="45"/></g><g><g><rect width="391" height="51" field="counter_value" style="fill-opacity:0.1;fill:hsl(80,100%,50%)"/></g><g transform="translate(24,-11)"><g transform="translate(342)"><text y="6">0</text></g><g transform="translate(0)"><text y="6">7</text></g></g><g transform="translate(24,25)"><g transform="translate(171)"><text y="6"><tspan>counter_value</tspan></text></g></g><g transform="translate(24,59)"><g><g><g transform="translate(342)"><text y="6">1</text></g><g transform="translate(293)"><text y="6">1</text></g><g transform="translate(244)"><text y="6">0</text></g><g transform="translate(196)"><text y="6">0</text></g><g transform="translate(147)"><text y="6">0</text></g><g transform="translate(98)"><text y="6">1</text></g><g transform="translate(49)"><text y="6">1</text></g><g transform="translate(0)"><text y="6">0</text></g></g></g></g></g></g></g></svg>