<svg xmlns="http://www.w3.org/2000/svg" xmlns:xlink="http://www.w3.org/1999/xlink" x="0" y="0" width="734" height="334" style="
        width:734px;
        height:334px;
        background: transparent;
        fill: none;
">
        
        
        <svg xmlns="http://www.w3.org/2000/svg" class="role-diagram-draw-area" style="overflow: visible;"><g class="shapes-region" style="stroke: black; fill: none;"><g class="composite-shape"><path class="real" d=" M50,70 L650,70 L650,320 L50,320 Z" style="stroke-width: 1px; stroke: rgb(0, 0, 0); fill: rgb(229, 229, 229); fill-opacity: 1;"/></g><g class="arrow-line"><path class="connection real" stroke-dasharray="" d="  M20,20 L680,20" style="stroke: rgb(0, 0, 0); stroke-width: 4px; fill: none; fill-opacity: 1;"/></g><g class="composite-shape"><path class="real" d=" M310,90 L390,90 L390,130 L310,130 Z" style="stroke-width: 1px; stroke: rgb(0, 0, 0); fill: rgb(205, 205, 205); fill-opacity: 1;"/></g><g class="arrow-line"><path class="connection real" stroke-dasharray="" d="  M350,23 L350,87" style="stroke: rgb(0, 0, 0); stroke-width: 1px; fill: none; fill-opacity: 1;"/><g stroke="none" fill="#000" transform="matrix(-1.8369701987210297e-16,-1,1,-1.8369701987210297e-16,350,90)" style="stroke: none; fill: rgb(0, 0, 0); stroke-width: 1px;"><path d=" M8.93,-4.29 L0,0 L8.93,4.29 Z"/></g><g stroke="none" fill="#000" transform="matrix(6.123233995736766e-17,1,-1,6.123233995736766e-17,350,20)" style="stroke: none; fill: rgb(0, 0, 0); stroke-width: 1px;"><path d=" M8.93,-4.29 L0,0 L8.93,4.29 Z"/></g></g><g class="arrow-line"><path class="connection real" stroke-dasharray="" d="  M10,210 L100,210 L100,190 L137,190" style="stroke: rgb(0, 0, 0); stroke-width: 1px; fill: none; fill-opacity: 1;"/><g stroke="none" fill="#000" transform="matrix(-1,1.2246467991473532e-16,-1.2246467991473532e-16,-1,139.99999999999997,190.00000000000003)" style="stroke: none; fill: rgb(0, 0, 0); stroke-width: 1px;"><path d=" M8.93,-4.29 L0,0 L8.93,4.29 Z"/></g></g><g class="composite-shape"><path class="real" d=" M140,177 L270,177 L270,200 L140,200 Z" style="stroke-width: 1px; stroke: rgb(0, 0, 0); fill: rgb(205, 205, 205); fill-opacity: 1;"/></g><g class="composite-shape"><path class="real" d=" M140,217 L270,217 L270,240 L140,240 Z" style="stroke-width: 1px; stroke: rgb(0, 0, 0); fill: rgb(205, 205, 205); fill-opacity: 1;"/></g><g class="arrow-line"><path class="connection real" stroke-dasharray="" d="  M100,210 L100,230 L137,230" style="stroke: rgb(0, 0, 0); stroke-width: 1px; fill: none; fill-opacity: 1;"/><g stroke="none" fill="#000" transform="matrix(-1,1.2246467991473532e-16,-1.2246467991473532e-16,-1,139.99999999999997,230.00000000000003)" style="stroke: none; fill: rgb(0, 0, 0); stroke-width: 1px;"><path d=" M8.93,-4.29 L0,0 L8.93,4.29 Z"/></g></g><g class="arrow-line"><path class="connection real" stroke-dasharray="" d="  M80,210 L80,270 L677,270" style="stroke: rgb(0, 0, 0); stroke-width: 1px; fill: none; fill-opacity: 1;"/><g stroke="none" fill="#000" transform="matrix(-1,1.2246467991473532e-16,-1.2246467991473532e-16,-1,680,270.00000000000006)" style="stroke: none; fill: rgb(0, 0, 0); stroke-width: 1px;"><path d=" M8.93,-4.29 L0,0 L8.93,4.29 Z"/></g></g><g class="composite-shape"><path class="real" d=" M300,180 L400,180 L400,230 L300,230 Z" style="stroke-width: 1px; stroke: rgb(0, 0, 0); fill: rgb(205, 205, 205); fill-opacity: 1;"/></g><g class="arrow-line"><path class="connection real" stroke-dasharray="" d="  M270,190 L280,190 L280,200 L297,200" style="stroke: rgb(0, 0, 0); stroke-width: 1px; fill: none; fill-opacity: 1;"/><g stroke="none" fill="#000" transform="matrix(-1,1.2246467991473532e-16,-1.2246467991473532e-16,-1,300,200.00000000000003)" style="stroke: none; fill: rgb(0, 0, 0); stroke-width: 1px;"><path d=" M8.93,-4.29 L0,0 L8.93,4.29 Z"/></g></g><g class="arrow-line"><path class="connection real" stroke-dasharray="" d="  M270,230 L280,230 L280,220 L297,220" style="stroke: rgb(0, 0, 0); stroke-width: 1px; fill: none; fill-opacity: 1;"/><g stroke="none" fill="#000" transform="matrix(-1,1.2246467991473532e-16,-1.2246467991473532e-16,-1,300,220.00000000000003)" style="stroke: none; fill: rgb(0, 0, 0); stroke-width: 1px;"><path d=" M8.93,-4.29 L0,0 L8.93,4.29 Z"/></g></g><g class="arrow-line"><path class="connection real" stroke-dasharray="" d="  M350,130 L350,177" style="stroke: rgb(0, 0, 0); stroke-width: 1px; fill: none; fill-opacity: 1;"/><g stroke="none" fill="#000" transform="matrix(-1.8369701987210297e-16,-1,1,-1.8369701987210297e-16,350,179.99999999999994)" style="stroke: none; fill: rgb(0, 0, 0); stroke-width: 1px;"><path d=" M8.93,-4.29 L0,0 L8.93,4.29 Z"/></g></g><g class="composite-shape"><path class="real" d=" M470,190 L570,190 L570,220 L470,220 Z" style="stroke-width: 1px; stroke: rgb(0, 0, 0); fill: rgb(205, 205, 205); fill-opacity: 1;"/></g><g class="arrow-line"><path class="connection real" stroke-dasharray="" d="  M400,205 L467,205" style="stroke: rgb(0, 0, 0); stroke-width: 1px; fill: none; fill-opacity: 1;"/><g stroke="none" fill="#000" transform="matrix(-1,1.2246467991473532e-16,-1.2246467991473532e-16,-1,470,205)" style="stroke: none; fill: rgb(0, 0, 0); stroke-width: 1px;"><path d=" M8.93,-4.29 L0,0 L8.93,4.29 Z"/></g></g><g class="arrow-line"><path class="connection real" stroke-dasharray="" d="  M570,205 L677,205" style="stroke: rgb(0, 0, 0); stroke-width: 1px; fill: none; fill-opacity: 1;"/><g stroke="none" fill="#000" transform="matrix(-1,1.2246467991473532e-16,-1.2246467991473532e-16,-1,680,204.99999999999997)" style="stroke: none; fill: rgb(0, 0, 0); stroke-width: 1px;"><path d=" M8.93,-4.29 L0,0 L8.93,4.29 Z"/></g></g><g class="arrow-line"><path class="connection real" stroke-dasharray="" d="  M370,130 L370,150 L520,150 L520,187" style="stroke: rgb(0, 0, 0); stroke-width: 1px; fill: none; fill-opacity: 1;"/><g stroke="none" fill="#000" transform="matrix(-1.8369701987210297e-16,-1,1,-1.8369701987210297e-16,520,190)" style="stroke: none; fill: rgb(0, 0, 0); stroke-width: 1px;"><path d=" M8.93,-4.29 L0,0 L8.93,4.29 Z"/></g></g><g class="arrow-line"><path class="connection real" stroke-dasharray="" d="  M350,233 L350,270" style="stroke: rgb(0, 0, 0); stroke-width: 1px; fill: none; fill-opacity: 1;"/><g stroke="none" fill="#000" transform="matrix(6.123233995736766e-17,1,-1,6.123233995736766e-17,350,230)" style="stroke: none; fill: rgb(0, 0, 0); stroke-width: 1px;"><path d=" M8.93,-4.29 L0,0 L8.93,4.29 Z"/></g></g><g class="arrow-line"><path class="connection real" stroke-dasharray="" d="  M390,110 L677,110" style="stroke: rgb(0, 0, 0); stroke-width: 1px; fill: none; fill-opacity: 1;"/><g stroke="none" fill="#000" transform="matrix(-1,1.2246467991473532e-16,-1.2246467991473532e-16,-1,680,110)" style="stroke: none; fill: rgb(0, 0, 0); stroke-width: 1px;"><path d=" M8.93,-4.29 L0,0 L8.93,4.29 Z"/></g></g><g/></g><g/><g/><g/></svg>
        <svg xmlns="http://www.w3.org/2000/svg" xmlns:xlink="http://www.w3.org/1999/xlink" width="732" height="332" style="width:732px;height:332px;font-family:Asana-Math, Asana;background:transparent;"><g><g><g><text x="38" y="29" style="white-space:pre;stroke:none;fill:rgb(0,0,0);fill-opacity:1;font-size:12px;font-family:Arial, Helvetica, sans-serif;font-weight:700;font-style:normal;dominant-baseline:text-before-edge;text-decoration:none;">SoC Bus</text></g></g></g><g><g><g><text x="333" y="102" style="white-space:pre;stroke:none;fill:rgb(0,0,0);fill-opacity:1;font-size:15px;font-family:Arial, Helvetica, sans-serif;font-weight:700;font-style:normal;dominant-baseline:text-before-edge;text-decoration:none;">FIFO</text></g></g></g><g><g><g><text x="362" y="42" style="white-space:pre;stroke:none;fill:rgb(0,0,0);fill-opacity:1;font-size:15px;font-family:Arial, Helvetica, sans-serif;font-weight:700;font-style:normal;dominant-baseline:text-before-edge;text-decoration:none;">CSRs</text></g></g></g><g><g><g><text x="532" y="292" style="white-space:pre;stroke:none;fill:rgb(0,0,0);fill-opacity:1;font-size:15px;font-family:Arial, Helvetica, sans-serif;font-weight:700;font-style:normal;dominant-baseline:text-before-edge;text-decoration:none;">Trigger System</text></g></g></g><g><g><g><text x="144" y="182" style="white-space:pre;stroke:none;fill:rgb(0,0,0);fill-opacity:1;font-size:12px;font-family:Arial, Helvetica, sans-serif;font-weight:700;font-style:normal;dominant-baseline:text-before-edge;text-decoration:none;">Rising Edge Detector</text></g></g></g><g><g><g><text x="143" y="222" style="white-space:pre;stroke:none;fill:rgb(0,0,0);fill-opacity:1;font-size:12px;font-family:Arial, Helvetica, sans-serif;font-weight:700;font-style:normal;dominant-baseline:text-before-edge;text-decoration:none;">Falling Edge Detector</text></g></g></g><g><g><g><text x="6" y="191" style="white-space:pre;stroke:none;fill:rgb(0,0,0);fill-opacity:1;font-size:12px;font-family:Arial, Helvetica, sans-serif;font-weight:400;font-style:normal;dominant-baseline:text-before-edge;text-decoration:none;">data</text></g></g></g><g><g><g><text x="339" y="275" style="white-space:pre;stroke:none;fill:rgb(0,0,0);fill-opacity:1;font-size:12px;font-family:Arial, Helvetica, sans-serif;font-weight:400;font-style:normal;dominant-baseline:text-before-edge;text-decoration:none;">data</text></g></g></g><g><g><g><text x="317" y="199" style="white-space:pre;stroke:none;fill:rgb(0,0,0);fill-opacity:1;font-size:12px;font-family:Arial, Helvetica, sans-serif;font-weight:700;font-style:normal;dominant-baseline:text-before-edge;text-decoration:none;">Comparator</text></g></g></g><g><g><g><text x="492" y="199" style="white-space:pre;stroke:none;fill:rgb(0,0,0);fill-opacity:1;font-size:12px;font-family:Arial, Helvetica, sans-serif;font-weight:700;font-style:normal;dominant-baseline:text-before-edge;text-decoration:none;">Hit Shifter</text></g></g></g><g><g><g><text x="408" y="216" style="white-space:pre;stroke:none;fill:rgb(0,0,0);fill-opacity:1;font-size:10.5px;font-family:Arial, Helvetica, sans-serif;font-weight:400;font-style:normal;dominant-baseline:text-before-edge;text-decoration:none;">Internal Hit</text></g></g></g><g><g><g><text x="242" y="146" style="white-space:pre;stroke:none;fill:rgb(0,0,0);fill-opacity:1;font-size:10.5px;font-family:Arial, Helvetica, sans-serif;font-weight:400;font-style:normal;dominant-baseline:text-before-edge;text-decoration:none;">Trigger Configuration</text></g></g></g><g><g><g><text x="656" y="249" style="white-space:pre;stroke:none;fill:rgb(0,0,0);fill-opacity:1;font-size:12px;font-family:Arial, Helvetica, sans-serif;font-weight:400;font-style:normal;dominant-baseline:text-before-edge;text-decoration:none;">data</text></g></g></g><g><g><g><text x="656" y="185" style="white-space:pre;stroke:none;fill:rgb(0,0,0);fill-opacity:1;font-size:12px;font-family:Arial, Helvetica, sans-serif;font-weight:400;font-style:normal;dominant-baseline:text-before-edge;text-decoration:none;">hit</text></g></g></g><g><g><g><text x="411" y="153" style="white-space:pre;stroke:none;fill:rgb(0,0,0);fill-opacity:1;font-size:12px;font-family:Arial, Helvetica, sans-serif;font-weight:400;font-style:normal;dominant-baseline:text-before-edge;text-decoration:none;">Hit Shifter Offset</text></g></g></g><g><g><g><text x="445" y="94" style="white-space:pre;stroke:none;fill:rgb(0,0,0);fill-opacity:1;font-size:12px;font-family:Arial, Helvetica, sans-serif;font-weight:400;font-style:normal;dominant-baseline:text-before-edge;text-decoration:none;">Fault Injector Configuration</text></g></g></g><g><g><g><text x="528" y="116" style="white-space:pre;stroke:none;fill:rgb(0,0,0);fill-opacity:1;font-size:10.5px;font-family:Arial, Helvetica, sans-serif;font-weight:400;font-style:normal;dominant-baseline:text-before-edge;text-decoration:none;">fault model, fault mask...</text></g></g></g></svg>
</svg>
